<mxfile host="Electron" modified="2023-11-22T12:26:03.430Z" agent="Mozilla/5.0 (Windows NT 10.0; Win64; x64) AppleWebKit/537.36 (KHTML, like Gecko) draw.io/22.0.3 Chrome/114.0.5735.289 Electron/25.8.4 Safari/537.36" etag="enM17DXnrncW_ZS1qOam" version="22.0.3" type="device">
  <diagram name="Página-1" id="VMzkuhqKIQVd7l0G3Qmh">
    <mxGraphModel dx="3703" dy="1206" grid="1" gridSize="10" guides="1" tooltips="1" connect="1" arrows="1" fold="1" page="1" pageScale="1" pageWidth="827" pageHeight="1169" math="0" shadow="0">
      <root>
        <mxCell id="0" />
        <mxCell id="1" parent="0" />
        <mxCell id="Imy9nQMw6j6KX3XGHKt7-1" value="PAIS" style="whiteSpace=wrap;html=1;align=center;" vertex="1" parent="1">
          <mxGeometry x="550" y="285" width="100" height="40" as="geometry" />
        </mxCell>
        <mxCell id="Imy9nQMw6j6KX3XGHKt7-13" value="" style="triangle;whiteSpace=wrap;html=1;rotation=91;" vertex="1" parent="1">
          <mxGeometry x="-10" y="355" width="60" height="80" as="geometry" />
        </mxCell>
        <mxCell id="Imy9nQMw6j6KX3XGHKt7-14" value="" style="ellipse;whiteSpace=wrap;html=1;aspect=fixed;" vertex="1" parent="1">
          <mxGeometry x="15" y="345" width="10" height="10" as="geometry" />
        </mxCell>
        <mxCell id="Imy9nQMw6j6KX3XGHKt7-15" value="" style="endArrow=none;html=1;rounded=0;exitX=0.5;exitY=0;exitDx=0;exitDy=0;" edge="1" source="Imy9nQMw6j6KX3XGHKt7-14" target="Imy9nQMw6j6KX3XGHKt7-24" parent="1">
          <mxGeometry relative="1" as="geometry">
            <mxPoint x="-130" y="375" as="sourcePoint" />
            <mxPoint x="20" y="325" as="targetPoint" />
          </mxGeometry>
        </mxCell>
        <mxCell id="Imy9nQMw6j6KX3XGHKt7-16" value="" style="endArrow=none;html=1;rounded=0;entryX=0.5;entryY=1;entryDx=0;entryDy=0;" edge="1" source="Imy9nQMw6j6KX3XGHKt7-13" target="Imy9nQMw6j6KX3XGHKt7-14" parent="1">
          <mxGeometry relative="1" as="geometry">
            <mxPoint x="-20" y="405" as="sourcePoint" />
            <mxPoint x="140" y="405" as="targetPoint" />
          </mxGeometry>
        </mxCell>
        <mxCell id="Imy9nQMw6j6KX3XGHKt7-18" value="JUGADOR" style="whiteSpace=wrap;html=1;align=center;" vertex="1" parent="1">
          <mxGeometry x="-110" y="455" width="80" height="40" as="geometry" />
        </mxCell>
        <mxCell id="Imy9nQMw6j6KX3XGHKt7-19" value="ARBITRO" style="whiteSpace=wrap;html=1;align=center;" vertex="1" parent="1">
          <mxGeometry x="242.5" y="450" width="80" height="40" as="geometry" />
        </mxCell>
        <mxCell id="Imy9nQMw6j6KX3XGHKt7-20" value="" style="endArrow=none;html=1;rounded=0;" edge="1" source="Imy9nQMw6j6KX3XGHKt7-13" target="Imy9nQMw6j6KX3XGHKt7-19" parent="1">
          <mxGeometry relative="1" as="geometry">
            <mxPoint x="30" y="434" as="sourcePoint" />
            <mxPoint x="30" y="465" as="targetPoint" />
          </mxGeometry>
        </mxCell>
        <mxCell id="Imy9nQMw6j6KX3XGHKt7-21" value="" style="endArrow=none;html=1;rounded=0;" edge="1" source="Imy9nQMw6j6KX3XGHKt7-13" target="Imy9nQMw6j6KX3XGHKt7-18" parent="1">
          <mxGeometry relative="1" as="geometry">
            <mxPoint x="42" y="417" as="sourcePoint" />
            <mxPoint x="90" y="465" as="targetPoint" />
          </mxGeometry>
        </mxCell>
        <mxCell id="Imy9nQMw6j6KX3XGHKt7-22" value="" style="endArrow=none;html=1;rounded=0;edgeStyle=orthogonalEdgeStyle;curved=1;" edge="1" parent="1">
          <mxGeometry width="50" height="50" relative="1" as="geometry">
            <mxPoint x="-45.07" y="409" as="sourcePoint" />
            <mxPoint x="89.93" y="405" as="targetPoint" />
            <Array as="points">
              <mxPoint x="-45.07" y="432" />
              <mxPoint x="89.93" y="432" />
            </Array>
          </mxGeometry>
        </mxCell>
        <mxCell id="Imy9nQMw6j6KX3XGHKt7-24" value="PARTICIPANTE" style="shape=ext;margin=3;double=1;whiteSpace=wrap;html=1;align=center;" vertex="1" parent="1">
          <mxGeometry x="-37.5" y="285" width="115" height="40" as="geometry" />
        </mxCell>
        <mxCell id="Imy9nQMw6j6KX3XGHKt7-25" value="PARTIDA" style="shape=ext;margin=3;double=1;whiteSpace=wrap;html=1;align=center;" vertex="1" parent="1">
          <mxGeometry x="-22.5" y="720" width="100" height="40" as="geometry" />
        </mxCell>
        <mxCell id="Imy9nQMw6j6KX3XGHKt7-26" value="HOTEL" style="whiteSpace=wrap;html=1;align=center;" vertex="1" parent="1">
          <mxGeometry x="-760" y="285" width="100" height="40" as="geometry" />
        </mxCell>
        <mxCell id="Imy9nQMw6j6KX3XGHKt7-27" value="Nivel_De_Juego" style="ellipse;whiteSpace=wrap;html=1;align=center;" vertex="1" parent="1">
          <mxGeometry x="-200" y="415" width="100" height="40" as="geometry" />
        </mxCell>
        <mxCell id="Imy9nQMw6j6KX3XGHKt7-28" value="Años_De_Experiencia" style="ellipse;whiteSpace=wrap;html=1;align=center;" vertex="1" parent="1">
          <mxGeometry x="190" y="365" width="132.5" height="40" as="geometry" />
        </mxCell>
        <mxCell id="Imy9nQMw6j6KX3XGHKt7-29" value="N_Participante" style="ellipse;whiteSpace=wrap;html=1;align=center;fontStyle=4;" vertex="1" parent="1">
          <mxGeometry x="-160" y="200" width="100" height="40" as="geometry" />
        </mxCell>
        <mxCell id="Imy9nQMw6j6KX3XGHKt7-30" value="Nombre" style="ellipse;whiteSpace=wrap;html=1;align=center;" vertex="1" parent="1">
          <mxGeometry x="-170" y="335" width="100" height="40" as="geometry" />
        </mxCell>
        <mxCell id="Imy9nQMw6j6KX3XGHKt7-31" value="Direccion" style="ellipse;whiteSpace=wrap;html=1;align=center;" vertex="1" parent="1">
          <mxGeometry x="-30" y="190" width="100" height="40" as="geometry" />
        </mxCell>
        <mxCell id="Imy9nQMw6j6KX3XGHKt7-32" value="Telefono de contacto" style="ellipse;whiteSpace=wrap;html=1;align=center;" vertex="1" parent="1">
          <mxGeometry x="102.5" y="240" width="100" height="40" as="geometry" />
        </mxCell>
        <mxCell id="Imy9nQMw6j6KX3XGHKt7-33" value="Poblacion" style="ellipse;whiteSpace=wrap;html=1;align=center;" vertex="1" parent="1">
          <mxGeometry x="-110" y="130" width="100" height="40" as="geometry" />
        </mxCell>
        <mxCell id="Imy9nQMw6j6KX3XGHKt7-35" value="Codigo_Postal" style="ellipse;whiteSpace=wrap;html=1;align=center;" vertex="1" parent="1">
          <mxGeometry x="-60" y="100" width="100" height="40" as="geometry" />
        </mxCell>
        <mxCell id="Imy9nQMw6j6KX3XGHKt7-36" value="Calle" style="ellipse;whiteSpace=wrap;html=1;align=center;" vertex="1" parent="1">
          <mxGeometry x="2.5" y="130" width="100" height="40" as="geometry" />
        </mxCell>
        <mxCell id="Imy9nQMw6j6KX3XGHKt7-37" value="Numero" style="ellipse;whiteSpace=wrap;html=1;align=center;" vertex="1" parent="1">
          <mxGeometry x="90" y="110" width="100" height="40" as="geometry" />
        </mxCell>
        <mxCell id="Imy9nQMw6j6KX3XGHKt7-38" value="Piso" style="ellipse;whiteSpace=wrap;html=1;align=center;" vertex="1" parent="1">
          <mxGeometry x="102.5" y="150" width="100" height="40" as="geometry" />
        </mxCell>
        <mxCell id="Imy9nQMw6j6KX3XGHKt7-39" value="" style="endArrow=none;html=1;rounded=0;" edge="1" parent="1" source="Imy9nQMw6j6KX3XGHKt7-27" target="Imy9nQMw6j6KX3XGHKt7-18">
          <mxGeometry relative="1" as="geometry">
            <mxPoint x="-290" y="400" as="sourcePoint" />
            <mxPoint x="-130" y="400" as="targetPoint" />
          </mxGeometry>
        </mxCell>
        <mxCell id="Imy9nQMw6j6KX3XGHKt7-40" value="" style="endArrow=none;html=1;rounded=0;" edge="1" parent="1" source="Imy9nQMw6j6KX3XGHKt7-35" target="Imy9nQMw6j6KX3XGHKt7-31">
          <mxGeometry relative="1" as="geometry">
            <mxPoint x="-108" y="532" as="sourcePoint" />
            <mxPoint x="-75" y="505" as="targetPoint" />
          </mxGeometry>
        </mxCell>
        <mxCell id="Imy9nQMw6j6KX3XGHKt7-41" value="" style="endArrow=none;html=1;rounded=0;" edge="1" parent="1" source="Imy9nQMw6j6KX3XGHKt7-36" target="Imy9nQMw6j6KX3XGHKt7-31">
          <mxGeometry relative="1" as="geometry">
            <mxPoint x="-98" y="542" as="sourcePoint" />
            <mxPoint x="-65" y="515" as="targetPoint" />
          </mxGeometry>
        </mxCell>
        <mxCell id="Imy9nQMw6j6KX3XGHKt7-42" value="" style="endArrow=none;html=1;rounded=0;" edge="1" parent="1" source="Imy9nQMw6j6KX3XGHKt7-37" target="Imy9nQMw6j6KX3XGHKt7-31">
          <mxGeometry relative="1" as="geometry">
            <mxPoint x="-88" y="552" as="sourcePoint" />
            <mxPoint x="-55" y="525" as="targetPoint" />
          </mxGeometry>
        </mxCell>
        <mxCell id="Imy9nQMw6j6KX3XGHKt7-43" value="" style="endArrow=none;html=1;rounded=0;" edge="1" parent="1" source="Imy9nQMw6j6KX3XGHKt7-38" target="Imy9nQMw6j6KX3XGHKt7-31">
          <mxGeometry relative="1" as="geometry">
            <mxPoint x="-78" y="562" as="sourcePoint" />
            <mxPoint x="-45" y="535" as="targetPoint" />
          </mxGeometry>
        </mxCell>
        <mxCell id="Imy9nQMw6j6KX3XGHKt7-44" value="" style="endArrow=none;html=1;rounded=0;" edge="1" parent="1" source="Imy9nQMw6j6KX3XGHKt7-32" target="Imy9nQMw6j6KX3XGHKt7-24">
          <mxGeometry relative="1" as="geometry">
            <mxPoint x="-68" y="572" as="sourcePoint" />
            <mxPoint x="-35" y="545" as="targetPoint" />
          </mxGeometry>
        </mxCell>
        <mxCell id="Imy9nQMw6j6KX3XGHKt7-45" value="" style="endArrow=none;html=1;rounded=0;" edge="1" parent="1" source="Imy9nQMw6j6KX3XGHKt7-29" target="Imy9nQMw6j6KX3XGHKt7-24">
          <mxGeometry relative="1" as="geometry">
            <mxPoint x="-58" y="582" as="sourcePoint" />
            <mxPoint x="-25" y="555" as="targetPoint" />
          </mxGeometry>
        </mxCell>
        <mxCell id="Imy9nQMw6j6KX3XGHKt7-46" value="" style="endArrow=none;html=1;rounded=0;" edge="1" parent="1" source="Imy9nQMw6j6KX3XGHKt7-30" target="Imy9nQMw6j6KX3XGHKt7-24">
          <mxGeometry relative="1" as="geometry">
            <mxPoint x="-48" y="592" as="sourcePoint" />
            <mxPoint x="-20" y="570" as="targetPoint" />
          </mxGeometry>
        </mxCell>
        <mxCell id="Imy9nQMw6j6KX3XGHKt7-47" value="" style="endArrow=none;html=1;rounded=0;" edge="1" parent="1" source="Imy9nQMw6j6KX3XGHKt7-31" target="Imy9nQMw6j6KX3XGHKt7-24">
          <mxGeometry relative="1" as="geometry">
            <mxPoint x="-38" y="602" as="sourcePoint" />
            <mxPoint x="-5" y="575" as="targetPoint" />
          </mxGeometry>
        </mxCell>
        <mxCell id="Imy9nQMw6j6KX3XGHKt7-48" value="" style="endArrow=none;html=1;rounded=0;" edge="1" parent="1" source="Imy9nQMw6j6KX3XGHKt7-28" target="Imy9nQMw6j6KX3XGHKt7-19">
          <mxGeometry relative="1" as="geometry">
            <mxPoint x="-28" y="612" as="sourcePoint" />
            <mxPoint x="5" y="585" as="targetPoint" />
          </mxGeometry>
        </mxCell>
        <mxCell id="Imy9nQMw6j6KX3XGHKt7-49" value="" style="endArrow=none;html=1;rounded=0;" edge="1" parent="1" source="Imy9nQMw6j6KX3XGHKt7-33" target="Imy9nQMw6j6KX3XGHKt7-31">
          <mxGeometry relative="1" as="geometry">
            <mxPoint x="42" y="170" as="sourcePoint" />
            <mxPoint x="28" y="200" as="targetPoint" />
          </mxGeometry>
        </mxCell>
        <mxCell id="Imy9nQMw6j6KX3XGHKt7-51" value="(0,1)" style="text;html=1;strokeColor=none;fillColor=none;align=center;verticalAlign=middle;whiteSpace=wrap;rounded=0;" vertex="1" parent="1">
          <mxGeometry x="70" y="185" width="60" height="30" as="geometry" />
        </mxCell>
        <mxCell id="Imy9nQMw6j6KX3XGHKt7-52" value="Envian" style="shape=rhombus;perimeter=rhombusPerimeter;whiteSpace=wrap;html=1;align=center;" vertex="1" parent="1">
          <mxGeometry x="294" y="275" width="120" height="60" as="geometry" />
        </mxCell>
        <mxCell id="Imy9nQMw6j6KX3XGHKt7-53" value="" style="endArrow=none;html=1;rounded=0;" edge="1" parent="1" source="Imy9nQMw6j6KX3XGHKt7-24" target="Imy9nQMw6j6KX3XGHKt7-52">
          <mxGeometry relative="1" as="geometry">
            <mxPoint x="170" y="330" as="sourcePoint" />
            <mxPoint x="330" y="330" as="targetPoint" />
          </mxGeometry>
        </mxCell>
        <mxCell id="Imy9nQMw6j6KX3XGHKt7-54" value="" style="endArrow=none;html=1;rounded=0;" edge="1" parent="1" source="Imy9nQMw6j6KX3XGHKt7-52" target="Imy9nQMw6j6KX3XGHKt7-1">
          <mxGeometry relative="1" as="geometry">
            <mxPoint x="88" y="315" as="sourcePoint" />
            <mxPoint x="304" y="315" as="targetPoint" />
          </mxGeometry>
        </mxCell>
        <mxCell id="Imy9nQMw6j6KX3XGHKt7-55" value="(1,1)" style="text;html=1;strokeColor=none;fillColor=none;align=center;verticalAlign=middle;whiteSpace=wrap;rounded=0;" vertex="1" parent="1">
          <mxGeometry x="480" y="305" width="60" height="30" as="geometry" />
        </mxCell>
        <mxCell id="Imy9nQMw6j6KX3XGHKt7-56" value="(0,1)" style="text;html=1;strokeColor=none;fillColor=none;align=center;verticalAlign=middle;whiteSpace=wrap;rounded=0;" vertex="1" parent="1">
          <mxGeometry x="90" y="300" width="60" height="30" as="geometry" />
        </mxCell>
        <mxCell id="Imy9nQMw6j6KX3XGHKt7-57" value="Representa" style="shape=rhombus;perimeter=rhombusPerimeter;whiteSpace=wrap;html=1;align=center;" vertex="1" parent="1">
          <mxGeometry x="740" y="170" width="120" height="60" as="geometry" />
        </mxCell>
        <mxCell id="Imy9nQMw6j6KX3XGHKt7-58" value="" style="endArrow=none;html=1;rounded=0;entryX=0.5;entryY=1;entryDx=0;entryDy=0;exitX=1;exitY=0.5;exitDx=0;exitDy=0;" edge="1" parent="1" source="Imy9nQMw6j6KX3XGHKt7-1" target="Imy9nQMw6j6KX3XGHKt7-57">
          <mxGeometry relative="1" as="geometry">
            <mxPoint x="690" y="330" as="sourcePoint" />
            <mxPoint x="850" y="330" as="targetPoint" />
          </mxGeometry>
        </mxCell>
        <mxCell id="Imy9nQMw6j6KX3XGHKt7-59" value="" style="endArrow=none;html=1;rounded=0;entryX=0;entryY=0.5;entryDx=0;entryDy=0;exitX=0.25;exitY=0;exitDx=0;exitDy=0;" edge="1" parent="1" source="Imy9nQMw6j6KX3XGHKt7-1" target="Imy9nQMw6j6KX3XGHKt7-57">
          <mxGeometry relative="1" as="geometry">
            <mxPoint x="570" y="220" as="sourcePoint" />
            <mxPoint x="730" y="220" as="targetPoint" />
          </mxGeometry>
        </mxCell>
        <mxCell id="Imy9nQMw6j6KX3XGHKt7-60" value="Pais que representa" style="text;html=1;strokeColor=none;fillColor=none;align=center;verticalAlign=middle;whiteSpace=wrap;rounded=0;" vertex="1" parent="1">
          <mxGeometry x="610" y="210" width="60" height="30" as="geometry" />
        </mxCell>
        <mxCell id="Imy9nQMw6j6KX3XGHKt7-61" value="Pais que es representado" style="text;html=1;strokeColor=none;fillColor=none;align=center;verticalAlign=middle;whiteSpace=wrap;rounded=0;" vertex="1" parent="1">
          <mxGeometry x="690" y="280" width="80" height="30" as="geometry" />
        </mxCell>
        <mxCell id="Imy9nQMw6j6KX3XGHKt7-62" value="(0,N)" style="text;html=1;strokeColor=none;fillColor=none;align=center;verticalAlign=middle;whiteSpace=wrap;rounded=0;" vertex="1" parent="1">
          <mxGeometry x="746" y="248" width="60" height="30" as="geometry" />
        </mxCell>
        <mxCell id="Imy9nQMw6j6KX3XGHKt7-63" value="(0,1)" style="text;html=1;strokeColor=none;fillColor=none;align=center;verticalAlign=middle;whiteSpace=wrap;rounded=0;" vertex="1" parent="1">
          <mxGeometry x="670" y="185" width="60" height="30" as="geometry" />
        </mxCell>
        <mxCell id="Imy9nQMw6j6KX3XGHKt7-64" value="&lt;font style=&quot;font-size: 14px;&quot;&gt;&lt;b&gt;1:N&lt;/b&gt;&lt;/font&gt;" style="text;html=1;strokeColor=none;fillColor=none;align=center;verticalAlign=middle;whiteSpace=wrap;rounded=0;" vertex="1" parent="1">
          <mxGeometry x="770" y="140" width="60" height="30" as="geometry" />
        </mxCell>
        <mxCell id="Imy9nQMw6j6KX3XGHKt7-65" value="&lt;font style=&quot;font-size: 14px;&quot;&gt;&lt;b&gt;1:1&lt;/b&gt;&lt;/font&gt;" style="text;html=1;strokeColor=none;fillColor=none;align=center;verticalAlign=middle;whiteSpace=wrap;rounded=0;" vertex="1" parent="1">
          <mxGeometry x="324" y="240" width="60" height="30" as="geometry" />
        </mxCell>
        <mxCell id="Imy9nQMw6j6KX3XGHKt7-66" value="N_Clubs_Ajedrez" style="ellipse;whiteSpace=wrap;html=1;align=center;" vertex="1" parent="1">
          <mxGeometry x="710" y="325" width="100" height="40" as="geometry" />
        </mxCell>
        <mxCell id="Imy9nQMw6j6KX3XGHKt7-67" value="N_Pais" style="ellipse;whiteSpace=wrap;html=1;align=center;fontStyle=4;" vertex="1" parent="1">
          <mxGeometry x="640" y="365" width="100" height="40" as="geometry" />
        </mxCell>
        <mxCell id="Imy9nQMw6j6KX3XGHKt7-69" value="Nombre_Clubs" style="ellipse;shape=doubleEllipse;margin=3;whiteSpace=wrap;html=1;align=center;" vertex="1" parent="1">
          <mxGeometry x="500" y="190" width="100" height="40" as="geometry" />
        </mxCell>
        <mxCell id="Imy9nQMw6j6KX3XGHKt7-70" value="" style="endArrow=none;html=1;rounded=0;" edge="1" parent="1" source="Imy9nQMw6j6KX3XGHKt7-1" target="Imy9nQMw6j6KX3XGHKt7-69">
          <mxGeometry relative="1" as="geometry">
            <mxPoint x="550" y="350" as="sourcePoint" />
            <mxPoint x="710" y="350" as="targetPoint" />
          </mxGeometry>
        </mxCell>
        <mxCell id="Imy9nQMw6j6KX3XGHKt7-71" value="" style="endArrow=none;html=1;rounded=0;" edge="1" parent="1" source="Imy9nQMw6j6KX3XGHKt7-67" target="Imy9nQMw6j6KX3XGHKt7-1">
          <mxGeometry relative="1" as="geometry">
            <mxPoint x="500" y="370" as="sourcePoint" />
            <mxPoint x="660" y="370" as="targetPoint" />
          </mxGeometry>
        </mxCell>
        <mxCell id="Imy9nQMw6j6KX3XGHKt7-72" value="" style="endArrow=none;html=1;rounded=0;" edge="1" parent="1" source="Imy9nQMw6j6KX3XGHKt7-66" target="Imy9nQMw6j6KX3XGHKt7-1">
          <mxGeometry relative="1" as="geometry">
            <mxPoint x="680" y="377" as="sourcePoint" />
            <mxPoint x="633" y="335" as="targetPoint" />
          </mxGeometry>
        </mxCell>
        <mxCell id="Imy9nQMw6j6KX3XGHKt7-75" value="Juega Blancas" style="shape=rhombus;perimeter=rhombusPerimeter;whiteSpace=wrap;html=1;align=center;" vertex="1" parent="1">
          <mxGeometry x="-240" y="550" width="120" height="60" as="geometry" />
        </mxCell>
        <mxCell id="Imy9nQMw6j6KX3XGHKt7-76" value="Juega Negras" style="shape=rhombus;perimeter=rhombusPerimeter;whiteSpace=wrap;html=1;align=center;" vertex="1" parent="1">
          <mxGeometry x="-90" y="550" width="120" height="60" as="geometry" />
        </mxCell>
        <mxCell id="Imy9nQMw6j6KX3XGHKt7-77" value="" style="endArrow=none;html=1;rounded=0;" edge="1" source="Imy9nQMw6j6KX3XGHKt7-18" target="Imy9nQMw6j6KX3XGHKt7-76" parent="1">
          <mxGeometry relative="1" as="geometry">
            <mxPoint x="-56.666666666666515" y="495" as="sourcePoint" />
            <mxPoint x="30" y="525" as="targetPoint" />
          </mxGeometry>
        </mxCell>
        <mxCell id="Imy9nQMw6j6KX3XGHKt7-78" value="" style="endArrow=none;html=1;rounded=0;" edge="1" source="Imy9nQMw6j6KX3XGHKt7-75" target="Imy9nQMw6j6KX3XGHKt7-18" parent="1">
          <mxGeometry relative="1" as="geometry">
            <mxPoint x="-200" y="565" as="sourcePoint" />
            <mxPoint x="-83.33333333333348" y="495" as="targetPoint" />
          </mxGeometry>
        </mxCell>
        <mxCell id="Imy9nQMw6j6KX3XGHKt7-79" value="" style="endArrow=none;html=1;rounded=0;edgeStyle=orthogonalEdgeStyle;curved=1;" edge="1" parent="1">
          <mxGeometry width="50" height="50" relative="1" as="geometry">
            <mxPoint x="-137.5" y="499" as="sourcePoint" />
            <mxPoint x="-2.5" y="495" as="targetPoint" />
            <Array as="points">
              <mxPoint x="-137.5" y="522" />
              <mxPoint x="-2.5" y="522" />
            </Array>
          </mxGeometry>
        </mxCell>
        <mxCell id="Imy9nQMw6j6KX3XGHKt7-81" value="" style="edgeStyle=none;orthogonalLoop=1;jettySize=auto;html=1;rounded=0;endArrow=none;endFill=0;" edge="1" source="Imy9nQMw6j6KX3XGHKt7-76" target="Imy9nQMw6j6KX3XGHKt7-25" parent="1">
          <mxGeometry width="80" relative="1" as="geometry">
            <mxPoint x="80" y="435" as="sourcePoint" />
            <mxPoint x="-56.666666666666515" y="635" as="targetPoint" />
            <Array as="points" />
          </mxGeometry>
        </mxCell>
        <mxCell id="Imy9nQMw6j6KX3XGHKt7-82" value="" style="edgeStyle=none;orthogonalLoop=1;jettySize=auto;html=1;rounded=0;endArrow=none;endFill=0;" edge="1" source="Imy9nQMw6j6KX3XGHKt7-75" target="Imy9nQMw6j6KX3XGHKt7-25" parent="1">
          <mxGeometry width="80" relative="1" as="geometry">
            <mxPoint x="-10" y="475" as="sourcePoint" />
            <mxPoint x="-83.33333333333348" y="635" as="targetPoint" />
            <Array as="points" />
          </mxGeometry>
        </mxCell>
        <mxCell id="Imy9nQMw6j6KX3XGHKt7-85" value="Es de mismo pais" style="shape=rhombus;perimeter=rhombusPerimeter;whiteSpace=wrap;html=1;align=center;" vertex="1" parent="1">
          <mxGeometry x="92.5" y="540" width="120" height="60" as="geometry" />
        </mxCell>
        <mxCell id="Imy9nQMw6j6KX3XGHKt7-86" value="Arbitra" style="shape=rhombus;perimeter=rhombusPerimeter;whiteSpace=wrap;html=1;align=center;" vertex="1" parent="1">
          <mxGeometry x="322.5" y="575" width="120" height="60" as="geometry" />
        </mxCell>
        <mxCell id="Imy9nQMw6j6KX3XGHKt7-87" value="" style="endArrow=none;html=1;rounded=0;" edge="1" source="Imy9nQMw6j6KX3XGHKt7-19" target="Imy9nQMw6j6KX3XGHKt7-86" parent="1">
          <mxGeometry relative="1" as="geometry">
            <mxPoint x="323.3333333333335" y="485" as="sourcePoint" />
            <mxPoint x="410" y="515" as="targetPoint" />
          </mxGeometry>
        </mxCell>
        <mxCell id="Imy9nQMw6j6KX3XGHKt7-88" value="" style="endArrow=none;html=1;rounded=0;" edge="1" source="Imy9nQMw6j6KX3XGHKt7-186" target="Imy9nQMw6j6KX3XGHKt7-19" parent="1">
          <mxGeometry relative="1" as="geometry">
            <mxPoint x="180" y="555" as="sourcePoint" />
            <mxPoint x="279.41176470588243" y="485" as="targetPoint" />
          </mxGeometry>
        </mxCell>
        <mxCell id="Imy9nQMw6j6KX3XGHKt7-89" value="" style="endArrow=none;html=1;rounded=0;edgeStyle=orthogonalEdgeStyle;curved=1;" edge="1" parent="1">
          <mxGeometry width="50" height="50" relative="1" as="geometry">
            <mxPoint x="202.5" y="489" as="sourcePoint" />
            <mxPoint x="337.5" y="485" as="targetPoint" />
            <Array as="points">
              <mxPoint x="202.5" y="512" />
              <mxPoint x="337.5" y="512" />
            </Array>
          </mxGeometry>
        </mxCell>
        <mxCell id="Imy9nQMw6j6KX3XGHKt7-91" value="" style="edgeStyle=none;orthogonalLoop=1;jettySize=auto;html=1;rounded=0;endArrow=none;endFill=0;" edge="1" source="Imy9nQMw6j6KX3XGHKt7-86" target="Imy9nQMw6j6KX3XGHKt7-25" parent="1">
          <mxGeometry width="80" relative="1" as="geometry">
            <mxPoint x="460" y="425" as="sourcePoint" />
            <mxPoint x="314.73684210526335" y="630" as="targetPoint" />
            <Array as="points" />
          </mxGeometry>
        </mxCell>
        <mxCell id="Imy9nQMw6j6KX3XGHKt7-92" value="" style="edgeStyle=none;orthogonalLoop=1;jettySize=auto;html=1;rounded=0;endArrow=none;endFill=0;" edge="1" source="Imy9nQMw6j6KX3XGHKt7-85" target="Imy9nQMw6j6KX3XGHKt7-18" parent="1">
          <mxGeometry width="80" relative="1" as="geometry">
            <mxPoint x="370" y="465" as="sourcePoint" />
            <mxPoint x="279.0857142857144" y="630" as="targetPoint" />
            <Array as="points" />
          </mxGeometry>
        </mxCell>
        <mxCell id="Imy9nQMw6j6KX3XGHKt7-93" value="Se hospeda" style="shape=rhombus;perimeter=rhombusPerimeter;whiteSpace=wrap;html=1;align=center;" vertex="1" parent="1">
          <mxGeometry x="-400" y="275" width="120" height="60" as="geometry" />
        </mxCell>
        <mxCell id="Imy9nQMw6j6KX3XGHKt7-94" value="" style="endArrow=none;html=1;rounded=0;" edge="1" parent="1" source="Imy9nQMw6j6KX3XGHKt7-26" target="Imy9nQMw6j6KX3XGHKt7-93">
          <mxGeometry relative="1" as="geometry">
            <mxPoint x="-590" y="310" as="sourcePoint" />
            <mxPoint x="-430" y="310" as="targetPoint" />
          </mxGeometry>
        </mxCell>
        <mxCell id="Imy9nQMw6j6KX3XGHKt7-95" value="" style="endArrow=none;html=1;rounded=0;" edge="1" parent="1" source="Imy9nQMw6j6KX3XGHKt7-24" target="Imy9nQMw6j6KX3XGHKt7-93">
          <mxGeometry relative="1" as="geometry">
            <mxPoint x="-650" y="314" as="sourcePoint" />
            <mxPoint x="-388" y="311" as="targetPoint" />
          </mxGeometry>
        </mxCell>
        <mxCell id="Imy9nQMw6j6KX3XGHKt7-96" value="Nombre" style="ellipse;whiteSpace=wrap;html=1;align=center;fontStyle=4;" vertex="1" parent="1">
          <mxGeometry x="-930" y="285" width="100" height="40" as="geometry" />
        </mxCell>
        <mxCell id="Imy9nQMw6j6KX3XGHKt7-97" value="Telefono" style="ellipse;whiteSpace=wrap;html=1;align=center;" vertex="1" parent="1">
          <mxGeometry x="-730" y="210" width="100" height="40" as="geometry" />
        </mxCell>
        <mxCell id="Imy9nQMw6j6KX3XGHKt7-98" value="Direccion" style="ellipse;whiteSpace=wrap;html=1;align=center;" vertex="1" parent="1">
          <mxGeometry x="-850" y="220" width="100" height="40" as="geometry" />
        </mxCell>
        <mxCell id="Imy9nQMw6j6KX3XGHKt7-99" value="Poblacion" style="ellipse;whiteSpace=wrap;html=1;align=center;" vertex="1" parent="1">
          <mxGeometry x="-930" y="160" width="100" height="40" as="geometry" />
        </mxCell>
        <mxCell id="Imy9nQMw6j6KX3XGHKt7-100" value="Codigo_Postal" style="ellipse;whiteSpace=wrap;html=1;align=center;" vertex="1" parent="1">
          <mxGeometry x="-880" y="130" width="100" height="40" as="geometry" />
        </mxCell>
        <mxCell id="Imy9nQMw6j6KX3XGHKt7-101" value="Calle" style="ellipse;whiteSpace=wrap;html=1;align=center;" vertex="1" parent="1">
          <mxGeometry x="-817.5" y="160" width="100" height="40" as="geometry" />
        </mxCell>
        <mxCell id="Imy9nQMw6j6KX3XGHKt7-102" value="Numero" style="ellipse;whiteSpace=wrap;html=1;align=center;" vertex="1" parent="1">
          <mxGeometry x="-730" y="140" width="100" height="40" as="geometry" />
        </mxCell>
        <mxCell id="Imy9nQMw6j6KX3XGHKt7-103" value="" style="endArrow=none;html=1;rounded=0;" edge="1" parent="1" source="Imy9nQMw6j6KX3XGHKt7-100" target="Imy9nQMw6j6KX3XGHKt7-98">
          <mxGeometry relative="1" as="geometry">
            <mxPoint x="-928" y="562" as="sourcePoint" />
            <mxPoint x="-895" y="535" as="targetPoint" />
          </mxGeometry>
        </mxCell>
        <mxCell id="Imy9nQMw6j6KX3XGHKt7-104" value="" style="endArrow=none;html=1;rounded=0;" edge="1" parent="1" source="Imy9nQMw6j6KX3XGHKt7-101" target="Imy9nQMw6j6KX3XGHKt7-98">
          <mxGeometry relative="1" as="geometry">
            <mxPoint x="-918" y="572" as="sourcePoint" />
            <mxPoint x="-885" y="545" as="targetPoint" />
          </mxGeometry>
        </mxCell>
        <mxCell id="Imy9nQMw6j6KX3XGHKt7-105" value="" style="endArrow=none;html=1;rounded=0;" edge="1" parent="1" source="Imy9nQMw6j6KX3XGHKt7-102" target="Imy9nQMw6j6KX3XGHKt7-98">
          <mxGeometry relative="1" as="geometry">
            <mxPoint x="-908" y="582" as="sourcePoint" />
            <mxPoint x="-875" y="555" as="targetPoint" />
          </mxGeometry>
        </mxCell>
        <mxCell id="Imy9nQMw6j6KX3XGHKt7-106" value="" style="endArrow=none;html=1;rounded=0;" edge="1" parent="1" source="Imy9nQMw6j6KX3XGHKt7-99" target="Imy9nQMw6j6KX3XGHKt7-98">
          <mxGeometry relative="1" as="geometry">
            <mxPoint x="-778" y="200" as="sourcePoint" />
            <mxPoint x="-792" y="230" as="targetPoint" />
          </mxGeometry>
        </mxCell>
        <mxCell id="Imy9nQMw6j6KX3XGHKt7-107" value="Fecha_Entrada" style="ellipse;whiteSpace=wrap;html=1;align=center;" vertex="1" parent="1">
          <mxGeometry x="-410" y="185" width="100" height="40" as="geometry" />
        </mxCell>
        <mxCell id="Imy9nQMw6j6KX3XGHKt7-108" value="Fecha_Salida" style="ellipse;whiteSpace=wrap;html=1;align=center;" vertex="1" parent="1">
          <mxGeometry x="-420" y="365" width="100" height="40" as="geometry" />
        </mxCell>
        <mxCell id="Imy9nQMw6j6KX3XGHKt7-109" value="" style="endArrow=none;html=1;rounded=0;" edge="1" parent="1" source="Imy9nQMw6j6KX3XGHKt7-108" target="Imy9nQMw6j6KX3XGHKt7-93">
          <mxGeometry relative="1" as="geometry">
            <mxPoint x="-520" y="340" as="sourcePoint" />
            <mxPoint x="-360" y="340" as="targetPoint" />
          </mxGeometry>
        </mxCell>
        <mxCell id="Imy9nQMw6j6KX3XGHKt7-110" value="" style="endArrow=none;html=1;rounded=0;" edge="1" parent="1" source="Imy9nQMw6j6KX3XGHKt7-93" target="Imy9nQMw6j6KX3XGHKt7-107">
          <mxGeometry relative="1" as="geometry">
            <mxPoint x="-353" y="375" as="sourcePoint" />
            <mxPoint x="-339" y="340" as="targetPoint" />
          </mxGeometry>
        </mxCell>
        <mxCell id="Imy9nQMw6j6KX3XGHKt7-111" value="" style="endArrow=none;html=1;rounded=0;" edge="1" parent="1" source="Imy9nQMw6j6KX3XGHKt7-97" target="Imy9nQMw6j6KX3XGHKt7-26">
          <mxGeometry relative="1" as="geometry">
            <mxPoint x="-343" y="385" as="sourcePoint" />
            <mxPoint x="-329" y="350" as="targetPoint" />
          </mxGeometry>
        </mxCell>
        <mxCell id="Imy9nQMw6j6KX3XGHKt7-112" value="" style="endArrow=none;html=1;rounded=0;" edge="1" parent="1" source="Imy9nQMw6j6KX3XGHKt7-96" target="Imy9nQMw6j6KX3XGHKt7-26">
          <mxGeometry relative="1" as="geometry">
            <mxPoint x="-751" y="366" as="sourcePoint" />
            <mxPoint x="-720" y="335" as="targetPoint" />
          </mxGeometry>
        </mxCell>
        <mxCell id="Imy9nQMw6j6KX3XGHKt7-113" value="" style="endArrow=none;html=1;rounded=0;" edge="1" parent="1" source="Imy9nQMw6j6KX3XGHKt7-98" target="Imy9nQMw6j6KX3XGHKt7-26">
          <mxGeometry relative="1" as="geometry">
            <mxPoint x="-741" y="376" as="sourcePoint" />
            <mxPoint x="-710" y="345" as="targetPoint" />
          </mxGeometry>
        </mxCell>
        <mxCell id="Imy9nQMw6j6KX3XGHKt7-114" value="(0,1)" style="text;html=1;strokeColor=none;fillColor=none;align=center;verticalAlign=middle;whiteSpace=wrap;rounded=0;" vertex="1" parent="1">
          <mxGeometry x="-110" y="275" width="60" height="30" as="geometry" />
        </mxCell>
        <mxCell id="Imy9nQMw6j6KX3XGHKt7-119" value="(1,N)" style="text;html=1;strokeColor=none;fillColor=none;align=center;verticalAlign=middle;whiteSpace=wrap;rounded=0;" vertex="1" parent="1">
          <mxGeometry x="-660" y="280" width="60" height="30" as="geometry" />
        </mxCell>
        <mxCell id="Imy9nQMw6j6KX3XGHKt7-120" value="&lt;font style=&quot;font-size: 14px;&quot;&gt;&lt;b&gt;1:N&lt;/b&gt;&lt;/font&gt;" style="text;html=1;strokeColor=none;fillColor=none;align=center;verticalAlign=middle;whiteSpace=wrap;rounded=0;" vertex="1" parent="1">
          <mxGeometry x="-360" y="245" width="60" height="30" as="geometry" />
        </mxCell>
        <mxCell id="Imy9nQMw6j6KX3XGHKt7-121" value="SALA" style="shape=ext;margin=3;double=1;whiteSpace=wrap;html=1;align=center;" vertex="1" parent="1">
          <mxGeometry x="-760" y="720" width="100" height="40" as="geometry" />
        </mxCell>
        <mxCell id="Imy9nQMw6j6KX3XGHKt7-122" value="Pertenece a" style="shape=rhombus;perimeter=rhombusPerimeter;whiteSpace=wrap;html=1;align=center;" vertex="1" parent="1">
          <mxGeometry x="-770" y="480" width="120" height="60" as="geometry" />
        </mxCell>
        <mxCell id="Imy9nQMw6j6KX3XGHKt7-123" value="Se celebra en" style="shape=rhombus;perimeter=rhombusPerimeter;whiteSpace=wrap;html=1;align=center;" vertex="1" parent="1">
          <mxGeometry x="-430" y="710" width="120" height="60" as="geometry" />
        </mxCell>
        <mxCell id="Imy9nQMw6j6KX3XGHKt7-124" value="MOVIMIENTO" style="shape=ext;margin=3;double=1;whiteSpace=wrap;html=1;align=center;" vertex="1" parent="1">
          <mxGeometry x="600" y="720" width="100" height="40" as="geometry" />
        </mxCell>
        <mxCell id="Imy9nQMw6j6KX3XGHKt7-125" value="Se ejecutan" style="shape=rhombus;perimeter=rhombusPerimeter;whiteSpace=wrap;html=1;align=center;" vertex="1" parent="1">
          <mxGeometry x="260" y="710" width="120" height="60" as="geometry" />
        </mxCell>
        <mxCell id="Imy9nQMw6j6KX3XGHKt7-126" value="N_Partida" style="ellipse;whiteSpace=wrap;html=1;align=center;fontStyle=4;" vertex="1" parent="1">
          <mxGeometry y="840" width="100" height="40" as="geometry" />
        </mxCell>
        <mxCell id="Imy9nQMw6j6KX3XGHKt7-127" value="Comentario" style="ellipse;whiteSpace=wrap;html=1;align=center;" vertex="1" parent="1">
          <mxGeometry x="740" y="750" width="100" height="40" as="geometry" />
        </mxCell>
        <mxCell id="Imy9nQMw6j6KX3XGHKt7-128" value="N_Movimiento" style="ellipse;whiteSpace=wrap;html=1;align=center;fontStyle=4;" vertex="1" parent="1">
          <mxGeometry x="700" y="790" width="100" height="40" as="geometry" />
        </mxCell>
        <mxCell id="Imy9nQMw6j6KX3XGHKt7-129" value="" style="endArrow=none;html=1;rounded=0;" edge="1" parent="1" source="Imy9nQMw6j6KX3XGHKt7-25" target="Imy9nQMw6j6KX3XGHKt7-125">
          <mxGeometry relative="1" as="geometry">
            <mxPoint x="140" y="790" as="sourcePoint" />
            <mxPoint x="300" y="790" as="targetPoint" />
          </mxGeometry>
        </mxCell>
        <mxCell id="Imy9nQMw6j6KX3XGHKt7-130" value="" style="endArrow=none;html=1;rounded=0;" edge="1" parent="1" source="Imy9nQMw6j6KX3XGHKt7-125" target="Imy9nQMw6j6KX3XGHKt7-124">
          <mxGeometry relative="1" as="geometry">
            <mxPoint x="88" y="750" as="sourcePoint" />
            <mxPoint x="270" y="750" as="targetPoint" />
          </mxGeometry>
        </mxCell>
        <mxCell id="Imy9nQMw6j6KX3XGHKt7-131" value="" style="endArrow=none;html=1;rounded=0;" edge="1" parent="1" source="Imy9nQMw6j6KX3XGHKt7-128" target="Imy9nQMw6j6KX3XGHKt7-124">
          <mxGeometry relative="1" as="geometry">
            <mxPoint x="430" y="790" as="sourcePoint" />
            <mxPoint x="590" y="790" as="targetPoint" />
          </mxGeometry>
        </mxCell>
        <mxCell id="Imy9nQMw6j6KX3XGHKt7-132" value="" style="endArrow=none;html=1;rounded=0;" edge="1" parent="1" source="Imy9nQMw6j6KX3XGHKt7-127" target="Imy9nQMw6j6KX3XGHKt7-124">
          <mxGeometry relative="1" as="geometry">
            <mxPoint x="616" y="840" as="sourcePoint" />
            <mxPoint x="650" y="770" as="targetPoint" />
          </mxGeometry>
        </mxCell>
        <mxCell id="Imy9nQMw6j6KX3XGHKt7-133" value="Jugada" style="ellipse;whiteSpace=wrap;html=1;align=center;" vertex="1" parent="1">
          <mxGeometry x="590" y="650" width="100" height="40" as="geometry" />
        </mxCell>
        <mxCell id="Imy9nQMw6j6KX3XGHKt7-138" value="Pos_1" style="ellipse;whiteSpace=wrap;html=1;align=center;" vertex="1" parent="1">
          <mxGeometry x="540" y="590" width="100" height="40" as="geometry" />
        </mxCell>
        <mxCell id="Imy9nQMw6j6KX3XGHKt7-139" value="Pos_2" style="ellipse;whiteSpace=wrap;html=1;align=center;" vertex="1" parent="1">
          <mxGeometry x="630" y="570" width="100" height="40" as="geometry" />
        </mxCell>
        <mxCell id="Imy9nQMw6j6KX3XGHKt7-140" value="Pos_4" style="ellipse;whiteSpace=wrap;html=1;align=center;" vertex="1" parent="1">
          <mxGeometry x="760" y="630" width="100" height="40" as="geometry" />
        </mxCell>
        <mxCell id="Imy9nQMw6j6KX3XGHKt7-141" value="Pos_5" style="ellipse;whiteSpace=wrap;html=1;align=center;" vertex="1" parent="1">
          <mxGeometry x="730" y="670" width="100" height="40" as="geometry" />
        </mxCell>
        <mxCell id="Imy9nQMw6j6KX3XGHKt7-142" value="Pos_3" style="ellipse;whiteSpace=wrap;html=1;align=center;" vertex="1" parent="1">
          <mxGeometry x="726" y="585" width="100" height="40" as="geometry" />
        </mxCell>
        <mxCell id="Imy9nQMw6j6KX3XGHKt7-145" value="" style="endArrow=none;html=1;rounded=0;" edge="1" parent="1" source="Imy9nQMw6j6KX3XGHKt7-133" target="Imy9nQMw6j6KX3XGHKt7-124">
          <mxGeometry relative="1" as="geometry">
            <mxPoint x="616" y="840" as="sourcePoint" />
            <mxPoint x="650" y="770" as="targetPoint" />
          </mxGeometry>
        </mxCell>
        <mxCell id="Imy9nQMw6j6KX3XGHKt7-146" value="" style="endArrow=none;html=1;rounded=0;" edge="1" parent="1" source="Imy9nQMw6j6KX3XGHKt7-138" target="Imy9nQMw6j6KX3XGHKt7-133">
          <mxGeometry relative="1" as="geometry">
            <mxPoint x="653" y="700" as="sourcePoint" />
            <mxPoint x="657" y="730" as="targetPoint" />
          </mxGeometry>
        </mxCell>
        <mxCell id="Imy9nQMw6j6KX3XGHKt7-147" value="" style="endArrow=none;html=1;rounded=0;" edge="1" parent="1" source="Imy9nQMw6j6KX3XGHKt7-139" target="Imy9nQMw6j6KX3XGHKt7-133">
          <mxGeometry relative="1" as="geometry">
            <mxPoint x="663" y="710" as="sourcePoint" />
            <mxPoint x="667" y="740" as="targetPoint" />
          </mxGeometry>
        </mxCell>
        <mxCell id="Imy9nQMw6j6KX3XGHKt7-148" value="" style="endArrow=none;html=1;rounded=0;" edge="1" parent="1" source="Imy9nQMw6j6KX3XGHKt7-133" target="Imy9nQMw6j6KX3XGHKt7-142">
          <mxGeometry relative="1" as="geometry">
            <mxPoint x="673" y="720" as="sourcePoint" />
            <mxPoint x="677" y="750" as="targetPoint" />
          </mxGeometry>
        </mxCell>
        <mxCell id="Imy9nQMw6j6KX3XGHKt7-149" value="" style="endArrow=none;html=1;rounded=0;" edge="1" parent="1" source="Imy9nQMw6j6KX3XGHKt7-133" target="Imy9nQMw6j6KX3XGHKt7-140">
          <mxGeometry relative="1" as="geometry">
            <mxPoint x="683" y="730" as="sourcePoint" />
            <mxPoint x="687" y="760" as="targetPoint" />
          </mxGeometry>
        </mxCell>
        <mxCell id="Imy9nQMw6j6KX3XGHKt7-150" value="" style="endArrow=none;html=1;rounded=0;" edge="1" parent="1" source="Imy9nQMw6j6KX3XGHKt7-133" target="Imy9nQMw6j6KX3XGHKt7-141">
          <mxGeometry relative="1" as="geometry">
            <mxPoint x="693" y="740" as="sourcePoint" />
            <mxPoint x="697" y="770" as="targetPoint" />
          </mxGeometry>
        </mxCell>
        <mxCell id="Imy9nQMw6j6KX3XGHKt7-151" value="(1,N)" style="text;html=1;strokeColor=none;fillColor=none;align=center;verticalAlign=middle;whiteSpace=wrap;rounded=0;" vertex="1" parent="1">
          <mxGeometry x="122.5" y="720" width="60" height="30" as="geometry" />
        </mxCell>
        <mxCell id="Imy9nQMw6j6KX3XGHKt7-152" value="(1,1)" style="text;html=1;strokeColor=none;fillColor=none;align=center;verticalAlign=middle;whiteSpace=wrap;rounded=0;" vertex="1" parent="1">
          <mxGeometry x="540" y="720" width="60" height="30" as="geometry" />
        </mxCell>
        <mxCell id="Imy9nQMw6j6KX3XGHKt7-153" value="Fecha" style="ellipse;whiteSpace=wrap;html=1;align=center;" vertex="1" parent="1">
          <mxGeometry x="50" y="800" width="100" height="40" as="geometry" />
        </mxCell>
        <mxCell id="Imy9nQMw6j6KX3XGHKt7-154" value="" style="endArrow=none;html=1;rounded=0;" edge="1" parent="1" source="Imy9nQMw6j6KX3XGHKt7-153" target="Imy9nQMw6j6KX3XGHKt7-25">
          <mxGeometry relative="1" as="geometry">
            <mxPoint x="-180" y="810" as="sourcePoint" />
            <mxPoint x="-20" y="810" as="targetPoint" />
          </mxGeometry>
        </mxCell>
        <mxCell id="Imy9nQMw6j6KX3XGHKt7-155" value="" style="endArrow=none;html=1;rounded=0;" edge="1" parent="1" source="Imy9nQMw6j6KX3XGHKt7-126" target="Imy9nQMw6j6KX3XGHKt7-25">
          <mxGeometry relative="1" as="geometry">
            <mxPoint x="83" y="801" as="sourcePoint" />
            <mxPoint x="55" y="770" as="targetPoint" />
          </mxGeometry>
        </mxCell>
        <mxCell id="Imy9nQMw6j6KX3XGHKt7-158" value="" style="endArrow=none;html=1;rounded=0;" edge="1" parent="1" target="Imy9nQMw6j6KX3XGHKt7-25">
          <mxGeometry relative="1" as="geometry">
            <mxPoint x="-1.8257628535525328" y="810.2690827499546" as="sourcePoint" />
            <mxPoint x="66" y="770" as="targetPoint" />
          </mxGeometry>
        </mxCell>
        <mxCell id="Imy9nQMw6j6KX3XGHKt7-159" value="" style="endArrow=none;html=1;rounded=0;" edge="1" parent="1" source="Imy9nQMw6j6KX3XGHKt7-123" target="Imy9nQMw6j6KX3XGHKt7-25">
          <mxGeometry relative="1" as="geometry">
            <mxPoint x="-320" y="770" as="sourcePoint" />
            <mxPoint x="-160" y="770" as="targetPoint" />
          </mxGeometry>
        </mxCell>
        <mxCell id="Imy9nQMw6j6KX3XGHKt7-160" value="&lt;font style=&quot;font-size: 14px;&quot;&gt;&lt;b&gt;N:1&lt;/b&gt;&lt;/font&gt;" style="text;html=1;strokeColor=none;fillColor=none;align=center;verticalAlign=middle;whiteSpace=wrap;rounded=0;" vertex="1" parent="1">
          <mxGeometry x="290" y="680" width="60" height="30" as="geometry" />
        </mxCell>
        <mxCell id="Imy9nQMw6j6KX3XGHKt7-161" value="" style="endArrow=none;html=1;rounded=0;" edge="1" parent="1" source="Imy9nQMw6j6KX3XGHKt7-123" target="Imy9nQMw6j6KX3XGHKt7-121">
          <mxGeometry relative="1" as="geometry">
            <mxPoint x="-300" y="750" as="sourcePoint" />
            <mxPoint x="-12" y="750" as="targetPoint" />
          </mxGeometry>
        </mxCell>
        <mxCell id="Imy9nQMw6j6KX3XGHKt7-162" value="(1,1)" style="text;html=1;strokeColor=none;fillColor=none;align=center;verticalAlign=middle;whiteSpace=wrap;rounded=0;" vertex="1" parent="1">
          <mxGeometry x="-650" y="720" width="60" height="30" as="geometry" />
        </mxCell>
        <mxCell id="Imy9nQMw6j6KX3XGHKt7-163" value="(1,N)" style="text;html=1;strokeColor=none;fillColor=none;align=center;verticalAlign=middle;whiteSpace=wrap;rounded=0;" vertex="1" parent="1">
          <mxGeometry x="-110" y="720" width="60" height="30" as="geometry" />
        </mxCell>
        <mxCell id="Imy9nQMw6j6KX3XGHKt7-164" value="&lt;font style=&quot;font-size: 14px;&quot;&gt;&lt;b&gt;1:N&lt;/b&gt;&lt;/font&gt;" style="text;html=1;strokeColor=none;fillColor=none;align=center;verticalAlign=middle;whiteSpace=wrap;rounded=0;" vertex="1" parent="1">
          <mxGeometry x="-400" y="675" width="60" height="30" as="geometry" />
        </mxCell>
        <mxCell id="Imy9nQMw6j6KX3XGHKt7-165" value="" style="endArrow=none;html=1;rounded=0;" edge="1" parent="1" source="Imy9nQMw6j6KX3XGHKt7-122" target="Imy9nQMw6j6KX3XGHKt7-26">
          <mxGeometry relative="1" as="geometry">
            <mxPoint x="-740" y="410" as="sourcePoint" />
            <mxPoint x="-580" y="410" as="targetPoint" />
          </mxGeometry>
        </mxCell>
        <mxCell id="Imy9nQMw6j6KX3XGHKt7-166" value="" style="endArrow=none;html=1;rounded=0;" edge="1" parent="1" source="Imy9nQMw6j6KX3XGHKt7-122" target="Imy9nQMw6j6KX3XGHKt7-121">
          <mxGeometry relative="1" as="geometry">
            <mxPoint x="-700" y="490" as="sourcePoint" />
            <mxPoint x="-700" y="335" as="targetPoint" />
          </mxGeometry>
        </mxCell>
        <mxCell id="Imy9nQMw6j6KX3XGHKt7-167" value="N_Sala" style="ellipse;whiteSpace=wrap;html=1;align=center;fontStyle=4;" vertex="1" parent="1">
          <mxGeometry x="-817.5" y="820" width="100" height="40" as="geometry" />
        </mxCell>
        <mxCell id="Imy9nQMw6j6KX3XGHKt7-168" value="Entradas_Vendidas" style="ellipse;whiteSpace=wrap;html=1;align=center;" vertex="1" parent="1">
          <mxGeometry x="-60" y="810" width="100" height="40" as="geometry" />
        </mxCell>
        <mxCell id="Imy9nQMw6j6KX3XGHKt7-169" value="" style="endArrow=none;html=1;rounded=0;" edge="1" parent="1" source="Imy9nQMw6j6KX3XGHKt7-167" target="Imy9nQMw6j6KX3XGHKt7-121">
          <mxGeometry relative="1" as="geometry">
            <mxPoint x="-900" y="780" as="sourcePoint" />
            <mxPoint x="-740" y="780" as="targetPoint" />
          </mxGeometry>
        </mxCell>
        <mxCell id="Imy9nQMw6j6KX3XGHKt7-170" value="Capacidad" style="ellipse;whiteSpace=wrap;html=1;align=center;" vertex="1" parent="1">
          <mxGeometry x="-880" y="780" width="100" height="40" as="geometry" />
        </mxCell>
        <mxCell id="Imy9nQMw6j6KX3XGHKt7-171" value="Medios" style="ellipse;whiteSpace=wrap;html=1;align=center;" vertex="1" parent="1">
          <mxGeometry x="-717" y="800" width="100" height="40" as="geometry" />
        </mxCell>
        <mxCell id="Imy9nQMw6j6KX3XGHKt7-172" value="" style="endArrow=none;html=1;rounded=0;" edge="1" parent="1" source="Imy9nQMw6j6KX3XGHKt7-171" target="Imy9nQMw6j6KX3XGHKt7-121">
          <mxGeometry relative="1" as="geometry">
            <mxPoint x="-746" y="831" as="sourcePoint" />
            <mxPoint x="-711" y="770" as="targetPoint" />
          </mxGeometry>
        </mxCell>
        <mxCell id="Imy9nQMw6j6KX3XGHKt7-173" value="" style="endArrow=none;html=1;rounded=0;" edge="1" parent="1" source="Imy9nQMw6j6KX3XGHKt7-170" target="Imy9nQMw6j6KX3XGHKt7-121">
          <mxGeometry relative="1" as="geometry">
            <mxPoint x="-736" y="841" as="sourcePoint" />
            <mxPoint x="-701" y="780" as="targetPoint" />
          </mxGeometry>
        </mxCell>
        <mxCell id="Imy9nQMw6j6KX3XGHKt7-174" value="(1,1)" style="text;html=1;strokeColor=none;fillColor=none;align=center;verticalAlign=middle;whiteSpace=wrap;rounded=0;" vertex="1" parent="1">
          <mxGeometry x="-717.5" y="330" width="60" height="30" as="geometry" />
        </mxCell>
        <mxCell id="Imy9nQMw6j6KX3XGHKt7-175" value="(1,N)" style="text;html=1;strokeColor=none;fillColor=none;align=center;verticalAlign=middle;whiteSpace=wrap;rounded=0;" vertex="1" parent="1">
          <mxGeometry x="-720" y="690" width="60" height="30" as="geometry" />
        </mxCell>
        <mxCell id="Imy9nQMw6j6KX3XGHKt7-176" value="&lt;font style=&quot;font-size: 14px;&quot;&gt;&lt;b&gt;1:N&lt;/b&gt;&lt;/font&gt;" style="text;html=1;strokeColor=none;fillColor=none;align=center;verticalAlign=middle;whiteSpace=wrap;rounded=0;" vertex="1" parent="1">
          <mxGeometry x="-670" y="490" width="60" height="30" as="geometry" />
        </mxCell>
        <mxCell id="Imy9nQMw6j6KX3XGHKt7-177" value="(1,N)" style="text;html=1;strokeColor=none;fillColor=none;align=center;verticalAlign=middle;whiteSpace=wrap;rounded=0;" vertex="1" parent="1">
          <mxGeometry x="-82.5" y="680" width="60" height="30" as="geometry" />
        </mxCell>
        <mxCell id="Imy9nQMw6j6KX3XGHKt7-178" value="(1,N)" style="text;html=1;strokeColor=none;fillColor=none;align=center;verticalAlign=middle;whiteSpace=wrap;rounded=0;" vertex="1" parent="1">
          <mxGeometry x="-10" y="655" width="60" height="30" as="geometry" />
        </mxCell>
        <mxCell id="Imy9nQMw6j6KX3XGHKt7-179" value="(1,1)" style="text;html=1;strokeColor=none;fillColor=none;align=center;verticalAlign=middle;whiteSpace=wrap;rounded=0;" vertex="1" parent="1">
          <mxGeometry x="-180" y="510" width="60" height="30" as="geometry" />
        </mxCell>
        <mxCell id="Imy9nQMw6j6KX3XGHKt7-180" value="(1,1)" style="text;html=1;strokeColor=none;fillColor=none;align=center;verticalAlign=middle;whiteSpace=wrap;rounded=0;" vertex="1" parent="1">
          <mxGeometry x="-57.5" y="520" width="60" height="30" as="geometry" />
        </mxCell>
        <mxCell id="Imy9nQMw6j6KX3XGHKt7-181" value="&lt;font style=&quot;font-size: 14px;&quot;&gt;&lt;b&gt;1:N&lt;/b&gt;&lt;/font&gt;" style="text;html=1;strokeColor=none;fillColor=none;align=center;verticalAlign=middle;whiteSpace=wrap;rounded=0;" vertex="1" parent="1">
          <mxGeometry x="-290" y="565" width="60" height="30" as="geometry" />
        </mxCell>
        <mxCell id="Imy9nQMw6j6KX3XGHKt7-182" value="&lt;font style=&quot;font-size: 14px;&quot;&gt;&lt;b&gt;1:N&lt;/b&gt;&lt;/font&gt;" style="text;html=1;strokeColor=none;fillColor=none;align=center;verticalAlign=middle;whiteSpace=wrap;rounded=0;" vertex="1" parent="1">
          <mxGeometry x="10" y="565" width="60" height="30" as="geometry" />
        </mxCell>
        <mxCell id="Imy9nQMw6j6KX3XGHKt7-183" value="(1,N)" style="text;html=1;strokeColor=none;fillColor=none;align=center;verticalAlign=middle;whiteSpace=wrap;rounded=0;" vertex="1" parent="1">
          <mxGeometry x="80" y="680" width="60" height="30" as="geometry" />
        </mxCell>
        <mxCell id="Imy9nQMw6j6KX3XGHKt7-184" value="(1,1)" style="text;html=1;strokeColor=none;fillColor=none;align=center;verticalAlign=middle;whiteSpace=wrap;rounded=0;" vertex="1" parent="1">
          <mxGeometry x="330" y="520" width="60" height="30" as="geometry" />
        </mxCell>
        <mxCell id="Imy9nQMw6j6KX3XGHKt7-185" value="(1,N)" style="text;html=1;strokeColor=none;fillColor=none;align=center;verticalAlign=middle;whiteSpace=wrap;rounded=0;" vertex="1" parent="1">
          <mxGeometry x="10" y="490" width="60" height="30" as="geometry" />
        </mxCell>
        <mxCell id="Imy9nQMw6j6KX3XGHKt7-187" value="" style="endArrow=none;html=1;rounded=0;" edge="1" parent="1" source="Imy9nQMw6j6KX3XGHKt7-85" target="Imy9nQMw6j6KX3XGHKt7-186">
          <mxGeometry relative="1" as="geometry">
            <mxPoint x="176" y="552" as="sourcePoint" />
            <mxPoint x="257" y="490" as="targetPoint" />
          </mxGeometry>
        </mxCell>
        <mxCell id="Imy9nQMw6j6KX3XGHKt7-186" value="(1,N)" style="text;html=1;strokeColor=none;fillColor=none;align=center;verticalAlign=middle;whiteSpace=wrap;rounded=0;" vertex="1" parent="1">
          <mxGeometry x="170" y="500" width="60" height="30" as="geometry" />
        </mxCell>
        <mxCell id="Imy9nQMw6j6KX3XGHKt7-188" value="&lt;font style=&quot;font-size: 14px;&quot;&gt;&lt;b&gt;N:M&lt;/b&gt;&lt;/font&gt;" style="text;html=1;strokeColor=none;fillColor=none;align=center;verticalAlign=middle;whiteSpace=wrap;rounded=0;" vertex="1" parent="1">
          <mxGeometry x="122.5" y="595" width="60" height="30" as="geometry" />
        </mxCell>
        <mxCell id="Imy9nQMw6j6KX3XGHKt7-189" value="&lt;font style=&quot;font-size: 14px;&quot;&gt;&lt;b&gt;1:N&lt;/b&gt;&lt;/font&gt;" style="text;html=1;strokeColor=none;fillColor=none;align=center;verticalAlign=middle;whiteSpace=wrap;rounded=0;" vertex="1" parent="1">
          <mxGeometry x="430" y="590" width="60" height="30" as="geometry" />
        </mxCell>
      </root>
    </mxGraphModel>
  </diagram>
</mxfile>
